<svg width="14" height="14" viewBox="0 0 14 14" fill="none" xmlns="http://www.w3.org/2000/svg">
<path opacity="0.4" d="M7.65088 1.07558L9.1352 4.05843C9.24455 4.27454 9.45327 4.42462 9.69398 4.45797L13.028 4.94355C13.2227 4.97089 13.3994 5.07361 13.5188 5.23036C13.6368 5.3851 13.6875 5.5812 13.6588 5.77397C13.6355 5.93405 13.5601 6.08213 13.4448 6.19552L11.0289 8.53737C10.8522 8.70079 10.7722 8.94291 10.8149 9.1797L11.4097 12.472C11.473 12.8696 11.2096 13.2444 10.8149 13.3198C10.6522 13.3458 10.4855 13.3185 10.3388 13.2438L7.36482 11.6943C7.1441 11.5829 6.88338 11.5829 6.66267 11.6943L3.68869 13.2438C3.32328 13.4379 2.87052 13.3058 2.66714 12.9456C2.59179 12.8022 2.56512 12.6388 2.58979 12.4794L3.18459 9.18637C3.22726 8.95025 3.14658 8.70679 2.97054 8.54338L0.554688 6.20285C0.267293 5.92538 0.258624 5.46848 0.535351 5.181C0.541352 5.175 0.54802 5.16833 0.554688 5.16166C0.669379 5.04493 0.820078 4.97089 0.98278 4.95155L4.31683 4.4653C4.55688 4.43129 4.76559 4.28254 4.87562 4.0651L6.30659 1.07558C6.43395 0.81945 6.69801 0.660035 6.98474 0.666705H7.07409C7.32281 0.696721 7.53952 0.850799 7.65088 1.07558Z" fill="#616161"/>
<path d="M6.99468 11.6112C6.86555 11.6153 6.73975 11.6499 6.62659 11.712L3.66716 13.2579C3.30505 13.4307 2.87172 13.2966 2.6687 12.9503C2.59348 12.8089 2.56619 12.6468 2.59149 12.488L3.18257 9.20194C3.22251 8.96308 3.14263 8.72021 2.9689 8.55207L0.551968 6.21215C0.265078 5.93126 0.259753 5.47021 0.540652 5.18264C0.544646 5.17864 0.547974 5.1753 0.551968 5.17197C0.666458 5.05854 0.81423 4.98381 0.973318 4.96046L4.31016 4.46939C4.55179 4.4387 4.76147 4.28791 4.86797 4.06906L6.3184 1.04192C6.45618 0.797716 6.72044 0.652263 7.00001 0.667609C6.99468 0.865772 6.99468 11.4765 6.99468 11.6112Z" fill="#616161"/>
</svg>
