<svg width="20" height="17" viewBox="0 0 20 17" fill="none" xmlns="http://www.w3.org/2000/svg">
<path d="M19.8333 8.32007C19.8333 8.76305 19.5041 9.12914 19.077 9.18708L18.9583 9.19507L1.45825 9.19507C0.975002 9.19507 0.58325 8.80332 0.58325 8.32007C0.58325 7.87709 0.91243 7.511 1.33952 7.45306L1.45825 7.44507L18.9583 7.44507C19.4415 7.44507 19.8333 7.83682 19.8333 8.32007Z" fill="white"/>
<path d="M9.13374 14.7284C9.47619 15.0694 9.47738 15.6234 9.13641 15.9658C8.82643 16.2771 8.34039 16.3064 7.99729 16.053L7.89897 15.9685L0.840639 8.94048C0.528396 8.62958 0.499991 8.14178 0.755438 7.79869L0.840588 7.70043L7.89892 0.671262C8.24134 0.330261 8.79535 0.331408 9.13636 0.673824C9.44636 0.985111 9.47359 1.47128 9.21872 1.8133L9.13379 1.91126L2.69842 8.32078L9.13374 14.7284Z" fill="white"/>
</svg>
