<svg width="23" height="26" viewBox="0 0 23 26" fill="none" xmlns="http://www.w3.org/2000/svg">
<path fill-rule="evenodd" clip-rule="evenodd" d="M11.2314 25.2497H11.229C9.92121 25.2485 8.68338 24.6722 7.74421 23.6257C7.42104 23.2675 7.45021 22.7134 7.80954 22.3914C8.16888 22.067 8.72188 22.0962 9.04504 22.4567C9.64938 23.1299 10.4252 23.4997 11.2302 23.4997H11.2314C12.0399 23.4997 12.8192 23.1299 13.4247 22.4555C13.749 22.0974 14.302 22.0682 14.6602 22.3914C15.0195 22.7145 15.0487 23.2687 14.7255 23.6269C13.7829 24.6734 12.5427 25.2497 11.2314 25.2497Z" fill="#212121"/>
<mask id="mask0_374_6831" style="mask-type:luminance" maskUnits="userSpaceOnUse" x="0" y="0" width="23" height="21">
<path fill-rule="evenodd" clip-rule="evenodd" d="M0.500122 0.166504H22.0799V20.4058H0.500122V0.166504Z" fill="white"/>
</mask>
<g mask="url(#mask0_374_6831)">
<path fill-rule="evenodd" clip-rule="evenodd" d="M11.2883 1.9165C7.2108 1.9165 4.3688 5.11084 4.3688 7.97734C4.3688 10.4028 3.69564 11.524 3.10064 12.5133C2.62347 13.3078 2.24664 13.9355 2.24664 15.2993C2.44147 17.4997 3.89397 18.6558 11.2883 18.6558C18.6418 18.6558 20.1398 17.4483 20.3335 15.2235C20.33 13.9355 19.9531 13.3078 19.476 12.5133C18.881 11.524 18.2078 10.4028 18.2078 7.97734C18.2078 5.11084 15.3658 1.9165 11.2883 1.9165ZM11.2883 20.4058C5.83297 20.4058 0.902638 20.0208 0.500138 15.374C0.496638 13.4513 1.08347 12.4737 1.60147 11.6127C2.1253 10.74 2.6188 9.9175 2.6188 7.97734C2.6188 4.2055 6.10247 0.166504 11.2883 0.166504C16.4741 0.166504 19.9578 4.2055 19.9578 7.97734C19.9578 9.9175 20.4513 10.74 20.9751 11.6127C21.4931 12.4737 22.08 13.4513 22.08 15.2993C21.6728 20.0208 16.7436 20.4058 11.2883 20.4058Z" fill="#212121"/>
</g>
</svg>
