<svg width="28" height="28" viewBox="0 0 28 28" fill="none" xmlns="http://www.w3.org/2000/svg">
<path fill-rule="evenodd" clip-rule="evenodd" d="M14 4.08398C8.53181 4.08398 4.08331 8.53248 4.08331 14.0007C4.08331 19.4688 8.53181 23.9173 14 23.9173C19.4681 23.9173 23.9166 19.4688 23.9166 14.0007C23.9166 8.53248 19.4681 4.08398 14 4.08398M14 25.6673C7.56698 25.6673 2.33331 20.4337 2.33331 14.0007C2.33331 7.56765 7.56698 2.33398 14 2.33398C20.433 2.33398 25.6666 7.56765 25.6666 14.0007C25.6666 20.4337 20.433 25.6673 14 25.6673" fill="#212121"/>
<path fill-rule="evenodd" clip-rule="evenodd" d="M18.6062 15.1829C17.961 15.1829 17.4337 14.6614 17.4337 14.0163C17.4337 13.3711 17.9505 12.8496 18.5945 12.8496H18.6062C19.2514 12.8496 19.7729 13.3711 19.7729 14.0163C19.7729 14.6614 19.2514 15.1829 18.6062 15.1829" fill="#212121"/>
<path fill-rule="evenodd" clip-rule="evenodd" d="M13.9282 15.1829C13.2831 15.1829 12.7569 14.6614 12.7569 14.0163C12.7569 13.3711 13.2726 12.8496 13.9177 12.8496H13.9282C14.5734 12.8496 15.0949 13.3711 15.0949 14.0163C15.0949 14.6614 14.5734 15.1829 13.9282 15.1829" fill="#212121"/>
<path fill-rule="evenodd" clip-rule="evenodd" d="M9.2513 15.1829C8.60613 15.1829 8.0788 14.6614 8.0788 14.0163C8.0788 13.3711 8.59563 12.8496 9.2408 12.8496H9.2513C9.89646 12.8496 10.418 13.3711 10.418 14.0163C10.418 14.6614 9.89646 15.1829 9.2513 15.1829" fill="#212121"/>
</svg>
