<svg width="18" height="20" viewBox="0 0 18 20" fill="none" xmlns="http://www.w3.org/2000/svg">
<path d="M10.2529 0C10.5101 0.000247213 10.708 0.210125 10.708 0.459961V3.67969C10.708 5.50962 12.2029 7.00942 14.0146 7.01953C14.7669 7.01953 15.361 7.03027 15.8164 7.03027C16.1233 7.03027 16.6289 7.01953 17.0547 7.01953C17.302 7.01966 17.4999 7.21993 17.5 7.46973V15.5098C17.5 17.9897 15.51 19.9999 13.0547 20H5.17285C2.5988 19.9998 0.500021 17.8899 0.5 15.29V4.50977C0.500126 2.02987 2.50055 0 4.96582 0H10.2529ZM5.92578 12.9004C5.51996 12.9004 5.18379 13.2298 5.18359 13.6396C5.18359 14.0496 5.51984 14.3896 5.92578 14.3896H11.3115C11.7175 14.3896 12.0547 14.0496 12.0547 13.6396C12.0545 13.2298 11.7173 12.9004 11.3115 12.9004H5.92578ZM5.92578 7.90039C5.51984 7.90039 5.18359 8.24039 5.18359 8.65039C5.18381 9.06021 5.51997 9.38965 5.92578 9.38965H9.27246C9.67819 9.38955 10.0144 9.06015 10.0146 8.65039C10.0146 8.24045 9.67832 7.90049 9.27246 7.90039H5.92578ZM12.1504 0.90625C12.1504 0.47525 12.6688 0.261266 12.9648 0.572266C14.0352 1.69631 15.9057 3.66088 16.9512 4.75879C17.24 5.06175 17.0279 5.56522 16.6113 5.56641C15.7975 5.56941 14.8376 5.56559 14.1475 5.55859C13.0525 5.55845 12.1504 4.6479 12.1504 3.54199V0.90625Z" fill="url(#paint0_linear_598_1913)"/>
<defs>
<linearGradient id="paint0_linear_598_1913" x1="17.5" y1="20" x2="-3.17335" y2="14.9051" gradientUnits="userSpaceOnUse">
<stop stop-color="#12D18E"/>
<stop offset="1" stop-color="#71E3BB"/>
</linearGradient>
</defs>
</svg>
