<svg width="20" height="19" viewBox="0 0 20 19" fill="none" xmlns="http://www.w3.org/2000/svg">
<path fill-rule="evenodd" clip-rule="evenodd" d="M18.7508 18.9395H11.4978C11.0838 18.9395 10.7478 18.6035 10.7478 18.1895C10.7478 17.7755 11.0838 17.4395 11.4978 17.4395H18.7508C19.1648 17.4395 19.5008 17.7755 19.5008 18.1895C19.5008 18.6035 19.1648 18.9395 18.7508 18.9395Z" fill="#212121"/>
<mask id="mask0_598_3037" style="mask-type:luminance" maskUnits="userSpaceOnUse" x="0" y="0" width="18" height="19">
<path fill-rule="evenodd" clip-rule="evenodd" d="M0.000305176 0H17.1809V18.9395H0.000305176V0Z" fill="white"/>
</mask>
<g mask="url(#mask0_598_3037)">
<path fill-rule="evenodd" clip-rule="evenodd" d="M11.1106 2.01664L1.69558 13.7916C1.52458 14.0056 1.46158 14.2816 1.52458 14.5466L2.20558 17.4316L5.24458 17.3936C5.53358 17.3906 5.80058 17.2616 5.97758 17.0416C9.19458 13.0166 15.3276 5.34264 15.5016 5.11764C15.6656 4.85164 15.7296 4.47564 15.6436 4.11364C15.5556 3.74264 15.3246 3.42764 14.9916 3.22664C14.9206 3.17764 13.2356 1.86964 13.1836 1.82864C12.5496 1.32064 11.6246 1.40864 11.1106 2.01664ZM1.61358 18.9396C1.26658 18.9396 0.964579 18.7016 0.883579 18.3626L0.0645795 14.8916C-0.104421 14.1726 0.0635795 13.4306 0.524579 12.8546L9.94458 1.07264C9.94858 1.06864 9.95158 1.06364 9.95558 1.05964C10.9886 -0.175357 12.8566 -0.357357 14.1166 0.653643C14.1666 0.692643 15.8396 1.99264 15.8396 1.99264C16.4476 2.35464 16.9226 3.00164 17.1026 3.76764C17.2816 4.52564 17.1516 5.30764 16.7346 5.96864C16.7036 6.01764 16.6766 6.05964 7.14858 17.9796C6.68958 18.5516 6.00158 18.8846 5.26258 18.8936L1.62358 18.9396H1.61358Z" fill="#212121"/>
</g>
<path fill-rule="evenodd" clip-rule="evenodd" d="M14.2234 8.68536C14.0634 8.68536 13.9034 8.63436 13.7664 8.53036L8.31436 4.34236C7.98636 4.09036 7.92436 3.62036 8.17636 3.29036C8.42936 2.96236 8.89936 2.90136 9.22836 3.15336L14.6814 7.34036C15.0094 7.59236 15.0714 8.06336 14.8184 8.39236C14.6714 8.58436 14.4484 8.68536 14.2234 8.68536Z" fill="#212121"/>
</svg>
