<svg width="18" height="20" viewBox="0 0 18 20" fill="none" xmlns="http://www.w3.org/2000/svg">
<path d="M8.34084 0.106302C8.73328 -0.0328088 9.17085 -0.0356946 9.57034 0.0994664L16.208 2.32603C16.951 2.57412 17.454 3.25745 17.458 4.02232L17.5 10.6629C17.513 12.676 16.7785 14.6284 15.4346 16.1581C14.8165 16.86 14.0243 17.4635 13.0127 18.0028L9.44534 19.91C9.33371 19.9688 9.21063 19.9988 9.08694 19.9999C8.96329 20.0008 8.83916 19.9716 8.72854 19.9139L5.12698 18.0506C4.10413 17.5201 3.30487 16.9256 2.68069 16.2333C1.31457 14.7192 0.555116 12.7757 0.542017 10.7596L0.500024 4.12388C0.495998 3.35803 0.989594 2.67084 1.72854 2.41294L8.34084 0.106302ZM12.7451 7.21861C12.4482 6.93326 11.9697 6.93521 11.6768 7.22447L8.30862 10.5448L6.92874 9.21861C6.63173 8.9335 6.15426 8.93625 5.86038 9.22544C5.56742 9.51472 5.5712 9.98013 5.86819 10.2655L7.78323 12.1092C7.93222 12.2524 8.12607 12.3221 8.31936 12.3202C8.51246 12.3192 8.70468 12.2473 8.85159 12.1024L12.751 8.25767C13.0437 7.96844 13.0408 7.50391 12.7451 7.21861Z" fill="url(#paint0_linear_598_1318)"/>
<defs>
<linearGradient id="paint0_linear_598_1318" x1="17.5" y1="20" x2="-3.17335" y2="14.9051" gradientUnits="userSpaceOnUse">
<stop stop-color="#12D18E"/>
<stop offset="1" stop-color="#71E3BB"/>
</linearGradient>
</defs>
</svg>
