<svg width="20" height="20" viewBox="0 0 20 20" fill="none" xmlns="http://www.w3.org/2000/svg">
<path fill-rule="evenodd" clip-rule="evenodd" d="M5.66991 0H14.3399C17.7299 0 19.9999 2.38 19.9999 5.92V14.091C19.9999 17.621 17.7299 20 14.3399 20H5.66991C2.27991 20 -9.15527e-05 17.621 -9.15527e-05 14.091V5.92C-9.15527e-05 2.38 2.27991 0 5.66991 0ZM9.98991 7.061C9.51991 7.061 9.12991 6.67 9.12991 6.191C9.12991 5.701 9.51991 5.311 10.0099 5.311C10.4899 5.311 10.8799 5.701 10.8799 6.191C10.8799 6.67 10.4899 7.061 9.98991 7.061ZM10.8699 13.781C10.8699 14.261 10.4799 14.651 9.98991 14.651C9.50991 14.651 9.11991 14.261 9.11991 13.781V9.361C9.11991 8.88 9.50991 8.481 9.98991 8.481C10.4799 8.481 10.8699 8.88 10.8699 9.361V13.781Z" fill="url(#paint0_linear_598_1708)"/>
<defs>
<linearGradient id="paint0_linear_598_1708" x1="19.9999" y1="20" x2="-3.7983" y2="13.0999" gradientUnits="userSpaceOnUse">
<stop stop-color="#F89300"/>
<stop offset="1" stop-color="#FFBB58"/>
</linearGradient>
</defs>
</svg>
