<svg width="18" height="20" viewBox="0 0 18 20" fill="none" xmlns="http://www.w3.org/2000/svg">
<path d="M6.96289 17.2275C7.46265 17.1218 10.5075 17.1219 11.0088 17.2275C11.4361 17.3262 11.8983 17.5572 11.8984 18.0605C11.8736 18.54 11.5927 18.9654 11.2041 19.2354C10.7002 19.6281 10.1084 19.8772 9.49023 19.9668C9.14848 20.0111 8.81226 20.0121 8.48242 19.9668C7.86344 19.8771 7.2723 19.628 6.76953 19.2344C6.37994 18.9655 6.09809 18.54 6.07324 18.0605C6.07342 17.5572 6.53567 17.3262 6.96289 17.2275ZM9.04492 0C11.1251 0 13.2505 0.987354 14.5127 2.625C15.3314 3.67935 15.707 4.73275 15.707 6.37012V6.7959C15.707 8.05181 16.0391 8.79246 16.7695 9.64551C17.3231 10.274 17.5 11.0808 17.5 11.9561C17.5 12.8302 17.213 13.6602 16.6377 14.334C15.8844 15.1417 14.8216 15.6574 13.7373 15.7471C12.1662 15.881 10.594 15.9941 9.00098 15.9941C7.40682 15.9941 5.83497 15.9263 4.26367 15.7471C3.1784 15.6574 2.11562 15.1417 1.36328 14.334C0.787933 13.6602 0.500007 12.8302 0.5 11.9561C0.5 11.0808 0.677882 10.274 1.23047 9.64551C1.98379 8.79246 2.29395 8.05181 2.29395 6.7959V6.37012C2.29398 4.68826 2.71351 3.58834 3.57715 2.51172C4.86123 0.94165 6.9197 0 8.95605 0H9.04492Z" fill="url(#paint0_linear_598_1188)"/>
<defs>
<linearGradient id="paint0_linear_598_1188" x1="17.5" y1="20.0004" x2="-3.17339" y2="14.9055" gradientUnits="userSpaceOnUse">
<stop stop-color="#FF5A5F"/>
<stop offset="1" stop-color="#FF8A9B"/>
</linearGradient>
</defs>
</svg>
