<svg width="20" height="20" viewBox="0 0 20 20" fill="none" xmlns="http://www.w3.org/2000/svg">
<path d="M10.7167 0C11.473 0 12.1579 0.420067 12.5361 1.04004C12.72 1.33993 12.843 1.70976 12.8124 2.09961C12.792 2.39961 12.8833 2.70047 13.0468 2.98047C13.5681 3.83035 14.7237 4.14989 15.623 3.66992C16.6346 3.09027 17.9116 3.44004 18.4941 4.42969L19.1787 5.61035C19.7713 6.60033 19.4447 7.87045 18.4228 8.44043C17.5542 8.95047 17.2473 10.0805 17.7685 10.9404C17.932 11.2103 18.1162 11.4401 18.4023 11.5801C18.76 11.7701 19.0362 12.0701 19.2304 12.3701C19.6084 12.99 19.5777 13.75 19.2099 14.4199L18.4941 15.6201C18.116 16.26 17.411 16.6601 16.6855 16.6602C16.328 16.6602 15.9294 16.5602 15.6025 16.3604C15.3368 16.1904 15.03 16.1299 14.7031 16.1299C13.6913 16.1299 12.8431 16.9602 12.8124 17.9502C12.8123 19.0999 11.8722 19.9998 10.6972 20H9.30659C8.12132 19.9999 7.18169 19.1 7.18159 17.9502C7.16115 16.9602 6.31247 16.1299 5.30073 16.1299C4.96351 16.1299 4.65678 16.1904 4.40131 16.3604C4.07437 16.5602 3.66565 16.6601 3.31831 16.6602C2.5825 16.6602 1.8771 16.2601 1.49897 15.6201L0.793891 14.4199C0.415848 13.77 0.395371 12.9901 0.773384 12.3701C0.936852 12.0702 1.24342 11.7701 1.59077 11.5801C1.87687 11.4401 2.06159 11.2104 2.2353 10.9404C2.74628 10.0804 2.43892 8.95043 1.57026 8.44043C0.558701 7.87045 0.232119 6.60028 0.814399 5.61035L1.49897 4.42969C2.09171 3.43988 3.35894 3.09012 4.38081 3.66992C5.2698 4.14987 6.42495 3.83024 6.94624 2.98047C7.10975 2.70047 7.20203 2.39961 7.18159 2.09961C7.16124 1.70975 7.27361 1.33994 7.46772 1.04004C7.84586 0.420117 8.53034 0.0199985 9.27631 0H10.7167ZM10.0117 7.17969C8.40744 7.17987 7.10945 8.43999 7.10932 10.0098C7.10932 11.5796 8.40736 12.8299 10.0117 12.8301C11.6161 12.8301 12.8837 11.5798 12.8837 10.0098C12.8836 8.43987 11.6161 7.17969 10.0117 7.17969Z" fill="url(#paint0_linear_598_1306)"/>
<defs>
<linearGradient id="paint0_linear_598_1306" x1="19.4999" y1="20" x2="-3.28062" y2="13.7252" gradientUnits="userSpaceOnUse">
<stop stop-color="#6949FF"/>
<stop offset="1" stop-color="#876DFF"/>
</linearGradient>
</defs>
</svg>
