<svg width="24" height="25" viewBox="0 0 24 25" fill="none" xmlns="http://www.w3.org/2000/svg">
<path d="M0 8.5C0 4.08172 3.58172 0.5 8 0.5H16C20.4183 0.5 24 4.08172 24 8.5V16.5C24 20.9183 20.4183 24.5 16 24.5H8C3.58172 24.5 0 20.9183 0 16.5V8.5Z" fill="#F89300"/>
<path fill-rule="evenodd" clip-rule="evenodd" d="M18.0607 8.43934C18.6464 9.02513 18.6464 9.97487 18.0607 10.5607L12.0607 16.5607C11.4749 17.1464 10.5251 17.1464 9.93934 16.5607L6.93934 13.5607C6.35355 12.9749 6.35355 12.0251 6.93934 11.4393C7.52513 10.8536 8.47487 10.8536 9.06066 11.4393L11 13.3787L15.9393 8.43934C16.5251 7.85355 17.4749 7.85355 18.0607 8.43934Z" fill="white"/>
</svg>
