<svg width="21" height="21" viewBox="0 0 21 21" fill="none" xmlns="http://www.w3.org/2000/svg">
<path fill-rule="evenodd" clip-rule="evenodd" d="M9.21139 9.21201L8.16439 12.559L11.5104 11.511L12.5584 8.16401L9.21139 9.21201ZM7.02039 14.452C6.82439 14.452 6.63239 14.375 6.48939 14.233C6.29239 14.035 6.22039 13.744 6.30439 13.479L7.89739 8.39001C7.97039 8.15401 8.15439 7.97101 8.38839 7.89801L13.4774 6.30501C13.7444 6.22001 14.0344 6.29301 14.2324 6.49001C14.4294 6.68801 14.5014 6.97901 14.4174 7.24401L12.8254 12.333C12.7524 12.568 12.5674 12.752 12.3334 12.825L7.24439 14.418C7.17039 14.441 7.09439 14.452 7.02039 14.452Z" fill="#9E9E9E"/>
<mask id="mask0_374_6282" style="mask-type:luminance" maskUnits="userSpaceOnUse" x="0" y="0" width="21" height="21">
<path fill-rule="evenodd" clip-rule="evenodd" d="M0 0H20.7218V20.7217H0V0Z" fill="white"/>
</mask>
<g mask="url(#mask0_374_6282)">
<path fill-rule="evenodd" clip-rule="evenodd" d="M10.3608 1.5C5.47479 1.5 1.49979 5.476 1.49979 10.361C1.49979 15.247 5.47479 19.222 10.3608 19.222C15.2468 19.222 19.2218 15.247 19.2218 10.361C19.2218 5.476 15.2468 1.5 10.3608 1.5ZM10.3608 20.722C4.64779 20.722 -0.000213623 16.074 -0.000213623 10.361C-0.000213623 4.648 4.64779 0 10.3608 0C16.0738 0 20.7218 4.648 20.7218 10.361C20.7218 16.074 16.0738 20.722 10.3608 20.722Z" fill="#9E9E9E"/>
</g>
</svg>
