<svg width="28" height="28" viewBox="0 0 28 28" fill="none" xmlns="http://www.w3.org/2000/svg">
<path fill-rule="evenodd" clip-rule="evenodd" d="M11.7601 21.6914H4.40894C3.92594 21.6914 3.53394 21.2994 3.53394 20.8164C3.53394 20.3334 3.92594 19.9414 4.40894 19.9414H11.7601C12.2431 19.9414 12.6351 20.3334 12.6351 20.8164C12.6351 21.2994 12.2431 21.6914 11.7601 21.6914" fill="#212121"/>
<path fill-rule="evenodd" clip-rule="evenodd" d="M20.2856 18.9092C19.2473 18.9092 18.4026 19.7445 18.4026 20.7712C18.4026 21.799 19.2473 22.6332 20.2856 22.6332C21.3228 22.6332 22.1663 21.799 22.1663 20.7712C22.1663 19.7445 21.3228 18.9092 20.2856 18.9092M20.2856 24.3832C18.2825 24.3832 16.6526 22.7627 16.6526 20.7712C16.6526 18.7797 18.2825 17.1592 20.2856 17.1592C22.2876 17.1592 23.9163 18.7797 23.9163 20.7712C23.9163 22.7627 22.2876 24.3832 20.2856 24.3832" fill="#212121"/>
<path fill-rule="evenodd" clip-rule="evenodd" d="M22.3894 10.3838H15.0394C14.5564 10.3838 14.1644 9.99179 14.1644 9.50879C14.1644 9.02579 14.5564 8.63379 15.0394 8.63379H22.3894C22.8724 8.63379 23.2644 9.02579 23.2644 9.50879C23.2644 9.99179 22.8724 10.3838 22.3894 10.3838" fill="#212121"/>
<mask id="mask0_404_2142" style="mask-type:luminance" maskUnits="userSpaceOnUse" x="3" y="5" width="8" height="9">
<path fill-rule="evenodd" clip-rule="evenodd" d="M3.5 5.83301H10.7634V13.0565H3.5V5.83301Z" fill="white"/>
</mask>
<g mask="url(#mask0_404_2142)">
<path fill-rule="evenodd" clip-rule="evenodd" d="M7.13159 7.58301C6.09442 7.58301 5.24976 8.41834 5.24976 9.44617C5.24976 10.4728 6.09442 11.307 7.13159 11.307C8.16992 11.307 9.01342 10.4728 9.01342 9.44617C9.01342 8.41834 8.16992 7.58301 7.13159 7.58301M7.13159 13.057C5.12959 13.057 3.49976 11.4377 3.49976 9.44617C3.49976 7.45467 5.12959 5.83301 7.13159 5.83301C9.13476 5.83301 10.7634 7.45467 10.7634 9.44617C10.7634 11.4377 9.13476 13.057 7.13159 13.057" fill="#212121"/>
</g>
</svg>
