<svg width="18" height="16" viewBox="0 0 18 16" fill="none" xmlns="http://www.w3.org/2000/svg">
<path d="M14.4675 9.68262C16.0507 9.68262 17.3336 10.9436 17.3337 12.499C17.3337 14.0537 16.0509 15.3145 14.4675 15.3145C12.8852 15.3144 11.6023 14.0536 11.6023 12.499C11.6025 10.9437 12.8853 9.6827 14.4675 9.68262ZM7.40308 11.2979C8.09647 11.298 8.65894 11.8519 8.65894 12.5332C8.65868 13.2133 8.09631 13.7674 7.40308 13.7676H1.92358C1.23023 13.7676 0.667007 13.2134 0.666748 12.5332C0.666748 11.8519 1.23007 11.2979 1.92358 11.2979H7.40308ZM3.53296 0.5C5.11605 0.500258 6.39817 1.76096 6.39819 3.31543C6.39819 4.87083 5.11606 6.13158 3.53296 6.13184C1.95056 6.13184 0.666748 4.87099 0.666748 3.31543C0.666769 1.7608 1.95057 0.5 3.53296 0.5ZM16.0779 2.08203C16.7705 2.08204 17.3337 2.63501 17.3337 3.31543C17.3337 3.99678 16.7705 4.5498 16.0779 4.5498H10.5984C9.90487 4.5498 9.34155 3.99678 9.34155 3.31543C9.34157 2.635 9.90489 2.08203 10.5984 2.08203H16.0779Z" fill="#F89300"/>
</svg>
