<svg width="25" height="24" viewBox="0 0 25 24" fill="none" xmlns="http://www.w3.org/2000/svg">
<g clip-path="url(#clip0_216_7543)">
<path d="M12.6666 0C6.03903 0 0.666626 5.3724 0.666626 12C0.666626 18.6276 6.03903 24 12.6666 24C19.2942 24 24.6666 18.6276 24.6666 12C24.6666 5.3724 19.2942 0 12.6666 0Z" fill="url(#paint0_linear_216_7543)"/>
<path d="M14.3952 16.8578H17.6517L18.1633 13.5496H14.3952V11.7414C14.3952 10.3673 14.8444 9.14861 16.1298 9.14861H18.1953V6.26199C17.8323 6.21292 17.0647 6.10596 15.6145 6.10596C12.5857 6.10596 10.8102 7.7053 10.8102 11.3494V13.5503H7.69641V16.8584H10.8095V25.9512C11.4261 26.043 12.0509 26.106 12.692 26.106C13.2715 26.106 13.8371 26.0531 14.3952 25.9776V16.8578Z" fill="white"/>
</g>
<defs>
<linearGradient id="paint0_linear_216_7543" x1="4.26243" y1="3.5958" x2="22.6356" y2="21.969" gradientUnits="userSpaceOnUse">
<stop stop-color="#2AA4F4"/>
<stop offset="1" stop-color="#007AD9"/>
</linearGradient>
<clipPath id="clip0_216_7543">
<rect width="24" height="24" fill="white" transform="translate(0.666626)"/>
</clipPath>
</defs>
</svg>
