<svg width="430" height="430" viewBox="0 0 430 430" fill="none" xmlns="http://www.w3.org/2000/svg">
<g clip-path="url(#clip0_31_17612)">
<mask id="mask0_31_17612" style="mask-type:luminance" maskUnits="userSpaceOnUse" x="108" y="144" width="82" height="96">
<path d="M108.185 144.404H189.025V239.004H108.185V144.404Z" fill="white"/>
</mask>
<g mask="url(#mask0_31_17612)">
<path d="M168.054 175.874H162.706L165.886 172.197C166.616 172.372 167.369 172.461 168.157 172.461C173.474 172.461 177.814 168.148 177.85 162.831C177.886 157.483 173.554 153.107 168.157 153.084C162.845 153.084 158.491 157.402 158.468 162.715C158.459 164.085 158.737 165.442 159.284 166.683L151.459 175.874H148.036L138.267 163.794C139.495 161.81 140.167 159.512 140.193 157.156C140.216 153.77 138.917 150.576 136.538 148.175C134.156 145.761 130.989 144.426 127.522 144.404C120.579 144.404 114.895 150.057 114.846 157.008C114.823 160.394 116.122 163.588 118.501 165.998C120.884 168.412 124.059 169.747 127.522 169.769C128.427 169.769 129.331 169.68 130.2 169.492L135.342 175.897H128.785C119.513 175.874 108.208 178.674 108.208 197.831V218.082C108.208 229.405 117.471 238.668 128.798 238.668H168.054C179.368 238.668 188.64 229.405 188.64 218.082V197.831C188.64 180.806 177.326 175.874 168.054 175.874ZM170.119 226.771H126.729C123.54 226.771 120.848 224.079 120.848 220.89L120.87 197.831V194.315C120.987 191.216 123.621 188.64 126.729 188.64H170.119C173.312 188.64 176.004 191.332 176.004 194.526L175.982 217.593H176.004V220.89C176.004 224.079 173.312 226.771 170.119 226.771Z" fill="black"/>
</g>
<path d="M139.669 214.53C139.647 210.794 139.625 204.667 139.602 200.931C139.575 197.191 142.375 195.65 145.577 197.496C148.767 199.35 154.106 202.382 157.295 204.237C160.489 206.096 160.56 209.146 157.38 211.036C154.2 212.931 148.825 216.017 145.645 217.894C142.478 219.788 139.683 218.265 139.669 214.53Z" fill="#F89300"/>
<path d="M193.349 225.269L205.496 172.522H216.372L215.386 197.767L221.227 172.522H231.422L219.256 225.269H208.936L209.743 198.859L203.669 225.269H193.349Z" fill="#F89300"/>
<path d="M235.216 225.752C226.257 225.752 222.844 221.108 224.967 211.813L229.142 193.771C230.118 189.52 232.089 186.134 235.054 183.612C238.029 181.095 241.603 179.832 245.786 179.832C249.952 179.832 252.944 181.095 254.763 183.612C256.59 186.134 257.011 189.52 256.035 193.771L251.86 211.813C249.733 221.108 244.183 225.752 235.216 225.752ZM237.115 217.475C237.975 217.475 238.678 217.17 239.229 216.561C239.789 215.943 240.188 215.101 240.429 214.035L245.464 192.051C246.082 189.435 245.554 188.127 243.869 188.127C242.194 188.127 241.048 189.435 240.429 192.051L235.395 214.035C235.153 215.101 235.166 215.943 235.431 216.561C235.69 217.17 236.255 217.475 237.115 217.475Z" fill="black"/>
<path d="M248.308 225.269L250.512 215.683L270.274 182.233H259.417L261.62 172.522H283.676L281.58 181.731L261.387 215.576H273.159L270.955 225.269H248.308Z" fill="#F89300"/>
<path d="M282.928 177.323L284.648 169.816H295.398L293.678 177.323H282.928ZM271.873 225.268L282.247 180.316H292.997L282.623 225.268H271.873Z" fill="black"/>
<path d="M298.155 225.752C293.532 225.752 290.504 224.489 289.071 221.954C287.638 219.41 287.512 215.625 288.695 210.595L292.869 192.535C293.81 188.405 295.718 185.256 298.585 183.093C301.451 180.92 305.008 179.832 309.263 179.832C317.899 179.832 321.254 184.069 319.332 192.535L318.544 195.796C317.8 199.07 317.146 201.735 316.573 203.787H300.968L299.015 212.494C298.643 214.048 298.517 215.267 298.638 216.149C298.755 217.036 299.355 217.475 300.43 217.475C301.241 217.475 301.868 217.233 302.311 216.74C302.764 216.252 303.104 215.692 303.333 215.056C303.557 214.411 303.798 213.475 304.049 212.243L305.088 207.89H315.767L315.158 210.47C313.975 215.715 312.08 219.571 309.478 222.044C306.871 224.516 303.1 225.752 298.155 225.752ZM307.238 198.43L308.582 192.66C309.321 189.435 308.891 187.823 307.292 187.823C305.5 187.823 304.233 189.435 303.494 192.66L302.15 198.43H307.238Z" fill="black"/>
<mask id="mask1_31_17612" style="mask-type:luminance" maskUnits="userSpaceOnUse" x="0" y="0" width="430" height="430">
<path d="M430 0H0V430H430V0Z" fill="black" fill-opacity="0.49"/>
</mask>
<g mask="url(#mask1_31_17612)">
<mask id="mask2_31_17612" style="mask-type:luminance" maskUnits="userSpaceOnUse" x="191" y="222" width="79" height="18">
<path d="M269.467 222.453H191.493V239.653H269.467V222.453Z" fill="white"/>
</mask>
<g mask="url(#mask2_31_17612)">
<mask id="mask3_31_17612" style="mask-type:luminance" maskUnits="userSpaceOnUse" x="191" y="229" width="8" height="8">
<path d="M191.538 229.333H198.373V236.213H191.538V229.333Z" fill="white"/>
</mask>
<g mask="url(#mask3_31_17612)">
<path d="M195.171 235.728C194.096 235.728 193.272 235.378 192.699 234.67C192.242 234.097 192.018 233.425 192.018 232.646C192.018 231.822 192.242 231.114 192.699 230.514C193.272 229.788 194.096 229.421 195.171 229.421C196.22 229.421 197.039 229.788 197.626 230.514C198.078 231.101 198.307 231.813 198.307 232.646C198.307 233.434 198.078 234.111 197.626 234.67C197.039 235.378 196.22 235.728 195.171 235.728ZM194.043 233.99C194.316 234.326 194.688 234.491 195.153 234.491C195.628 234.491 196.005 234.326 196.282 233.99C196.555 233.658 196.694 233.21 196.694 232.646C196.694 232.064 196.555 231.584 196.282 231.213C196.018 230.845 195.642 230.657 195.153 230.657C194.674 230.657 194.298 230.845 194.025 231.213C193.76 231.584 193.631 232.064 193.631 232.646C193.631 233.21 193.765 233.658 194.043 233.99Z" fill="black"/>
</g>
<path d="M204.442 235.728C203.376 235.728 202.547 235.378 201.952 234.67C201.486 234.097 201.253 233.425 201.253 232.646C201.253 231.822 201.486 231.114 201.952 230.514C202.534 229.788 203.358 229.421 204.424 229.421C205.257 229.421 205.938 229.618 206.467 230.012C207.004 230.406 207.318 230.935 207.416 231.589H205.786C205.786 231.293 205.665 231.065 205.428 230.908C205.186 230.742 204.89 230.657 204.532 230.657C204.017 230.657 203.609 230.845 203.313 231.213C203.013 231.584 202.865 232.064 202.865 232.646C202.865 233.21 203.009 233.658 203.295 233.99C203.582 234.326 203.958 234.491 204.424 234.491C204.877 234.491 205.222 234.42 205.463 234.276C205.701 234.133 205.88 233.882 206.001 233.524H204.908V232.341H207.38V235.656H206.216L206.162 235.154C205.719 235.539 205.145 235.728 204.442 235.728Z" fill="black"/>
<path d="M213.708 235.728C212.642 235.728 211.814 235.378 211.218 234.67C210.752 234.097 210.519 233.425 210.519 232.646C210.519 231.822 210.752 231.114 211.218 230.514C211.8 229.788 212.624 229.421 213.691 229.421C214.524 229.421 215.204 229.618 215.733 230.012C216.271 230.406 216.584 230.935 216.683 231.589H215.052C215.052 231.293 214.931 231.065 214.694 230.908C214.452 230.742 214.156 230.657 213.798 230.657C213.283 230.657 212.875 230.845 212.58 231.213C212.28 231.584 212.132 232.064 212.132 232.646C212.132 233.21 212.275 233.658 212.562 233.99C212.848 234.326 213.225 234.491 213.691 234.491C214.143 234.491 214.488 234.42 214.73 234.276C214.967 234.133 215.146 233.882 215.267 233.524H214.174V232.341H216.647V235.656H215.482L215.428 235.154C214.985 235.539 214.412 235.728 213.708 235.728Z" fill="black"/>
<path d="M221.971 233.757L219.624 229.529H221.416L222.778 232.019L224.103 229.529H225.895L223.584 233.739V235.656H221.971V233.757Z" fill="black"/>
<path d="M236.264 235.656H234.651V230.765H232.877V229.529H238.019V230.765H236.264V235.656Z" fill="black"/>
<path d="M241.007 229.529H245.63V230.765H242.62V232.001H244.913V233.255H242.62V234.42H245.63V235.656H241.007V229.529Z" fill="black"/>
<path d="M254.858 235.656H253.156L252.726 234.42H250.54L250.11 235.656H248.408L250.415 229.529H252.851L254.858 235.656ZM252.457 233.148L251.633 230.639L250.809 233.148H252.457Z" fill="black"/>
<path d="M260.99 235.656L259.593 230.872L259.306 235.656H257.694L257.873 232.592C257.953 231.352 258.016 230.33 258.052 229.529H260.775L261.743 233.13L262.71 229.529H265.434C265.478 230.33 265.541 231.352 265.613 232.592L265.81 235.656H264.197L263.893 230.872L262.513 235.656H260.99Z" fill="black"/>
</g>
</g>
</g>
<defs>
<clipPath id="clip0_31_17612">
<rect width="430" height="430" fill="white"/>
</clipPath>
</defs>
</svg>
