<svg width="20" height="20" viewBox="0 0 20 20" fill="none" xmlns="http://www.w3.org/2000/svg">
<mask id="mask0_865_1889" style="mask-type:luminance" maskUnits="userSpaceOnUse" x="1" y="1" width="18" height="18">
<path fill-rule="evenodd" clip-rule="evenodd" d="M1.66669 1.66699H18.3333V18.3337H1.66669V1.66699Z" fill="white"/>
</mask>
<g mask="url(#mask0_865_1889)">
<path fill-rule="evenodd" clip-rule="evenodd" d="M6.38669 2.91699C4.27919 2.91699 2.91669 4.36116 2.91669 6.59699V13.4037C2.91669 15.6395 4.27919 17.0837 6.38669 17.0837H13.61C15.72 17.0837 17.0834 15.6395 17.0834 13.4037V6.59699C17.0834 4.36116 15.72 2.91699 13.6117 2.91699H6.38669ZM13.61 18.3337H6.38669C3.56335 18.3337 1.66669 16.352 1.66669 13.4037V6.59699C1.66669 3.64866 3.56335 1.66699 6.38669 1.66699H13.6117C16.4359 1.66699 18.3334 3.64866 18.3334 6.59699V13.4037C18.3334 16.352 16.4359 18.3337 13.61 18.3337V18.3337Z" fill="#212121"/>
</g>
<path fill-rule="evenodd" clip-rule="evenodd" d="M9.995 13.9583C9.65 13.9583 9.37 13.6783 9.37 13.3333V10C9.37 9.655 9.65 9.375 9.995 9.375C10.34 9.375 10.62 9.655 10.62 10V13.3333C10.62 13.6783 10.34 13.9583 9.995 13.9583" fill="#212121"/>
<path fill-rule="evenodd" clip-rule="evenodd" d="M9.99912 7.6696C9.53829 7.6696 9.16162 7.2971 9.16162 6.83626C9.16162 6.37543 9.53079 6.00293 9.99079 6.00293H9.99912C10.46 6.00293 10.8325 6.37543 10.8325 6.83626C10.8325 7.2971 10.46 7.6696 9.99912 7.6696" fill="#212121"/>
</svg>
