<svg width="20" height="20" viewBox="0 0 20 20" fill="none" xmlns="http://www.w3.org/2000/svg">
<path fill-rule="evenodd" clip-rule="evenodd" d="M6.3099 2.92578C4.92907 2.92578 3.78323 4.04411 3.75073 5.42328V14.4491C3.72657 15.8216 4.81573 16.9483 6.1774 16.9716L6.30073 16.9708H12.9774C14.3457 16.9558 15.4616 15.8249 15.4599 14.4499V6.95078L11.5974 2.92578H6.32073H6.3099ZM6.16573 18.2216C4.1049 18.1858 2.46573 16.4883 2.50073 14.4383V5.40828C2.54823 3.34078 4.2549 1.67578 6.3074 1.67578H6.32323H11.8632C12.0332 1.67578 12.1957 1.74495 12.3141 1.86745L16.5357 6.26661C16.6474 6.38245 16.7099 6.53828 16.7099 6.69911V14.4491C16.7132 16.5066 15.0416 18.1991 12.9841 18.2208L6.16573 18.2216Z" fill="#212121"/>
<path fill-rule="evenodd" clip-rule="evenodd" d="M11.4938 12.0801H7.41132C7.06632 12.0801 6.78632 11.8001 6.78632 11.4551C6.78632 11.1101 7.06632 10.8301 7.41132 10.8301H11.4938C11.8388 10.8301 12.1188 11.1101 12.1188 11.4551C12.1188 11.8001 11.8388 12.0801 11.4938 12.0801" fill="#212121"/>
<path fill-rule="evenodd" clip-rule="evenodd" d="M16.0805 7.48699H13.7855C12.2597 7.48283 11.0197 6.23949 11.0197 4.71616V2.29199C11.0197 1.94699 11.2997 1.66699 11.6447 1.66699C11.9897 1.66699 12.2697 1.94699 12.2697 2.29199V4.71616C12.2697 5.55283 12.9505 6.23449 13.7872 6.23699H16.0805C16.4255 6.23699 16.7055 6.51699 16.7055 6.86199C16.7055 7.20699 16.4255 7.48699 16.0805 7.48699" fill="#212121"/>
</svg>
