<svg width="44" height="35" viewBox="0 0 44 35" fill="none" xmlns="http://www.w3.org/2000/svg">
<path d="M44 20.7881C44 23.6165 44 25.0307 43.1213 25.9094C42.2426 26.7881 40.8284 26.7881 38 26.7881H30.7071C29.5976 26.7881 29.0428 26.7881 28.5566 26.9604C28.1239 27.1137 27.7322 27.3643 27.4116 27.6928C27.0514 28.062 26.8188 28.5656 26.3536 29.5729C24.9698 32.5694 24.2778 34.0676 23.3238 34.5368C22.489 34.9473 21.511 34.9473 20.6762 34.5368C19.7222 34.0676 19.0302 32.5694 17.6464 29.5729C17.1812 28.5656 16.9486 28.062 16.5884 27.6928C16.2678 27.3643 15.8761 27.1137 15.4434 26.9604C14.9572 26.7881 14.4024 26.7881 13.2929 26.7881H6C3.17157 26.7881 1.75736 26.7881 0.87868 25.9094C0 25.0307 0 23.6165 0 20.7881V6C0 3.17157 0 1.75736 0.87868 0.87868C1.75736 0 3.17157 0 6 0H38C40.8284 0 42.2426 0 43.1213 0.87868C44 1.75736 44 3.17157 44 6V20.7881Z" fill="#F89300"/>
</svg>
