<svg width="24" height="25" viewBox="0 0 24 25" fill="none" xmlns="http://www.w3.org/2000/svg">
<path fill-rule="evenodd" clip-rule="evenodd" d="M12 21.5C16.9706 21.5 21 17.4706 21 12.5C21 7.52944 16.9706 3.5 12 3.5C7.02944 3.5 3 7.52944 3 12.5C3 17.4706 7.02944 21.5 12 21.5ZM12 24.5C18.6274 24.5 24 19.1274 24 12.5C24 5.87258 18.6274 0.5 12 0.5C5.37258 0.5 0 5.87258 0 12.5C0 19.1274 5.37258 24.5 12 24.5Z" fill="#F89300"/>
<path d="M19 12.5C19 16.366 15.866 19.5 12 19.5C8.13401 19.5 5 16.366 5 12.5C5 8.63401 8.13401 5.5 12 5.5C15.866 5.5 19 8.63401 19 12.5Z" fill="#F89300"/>
</svg>
