<svg width="24" height="25" viewBox="0 0 24 25" fill="none" xmlns="http://www.w3.org/2000/svg">
<mask id="mask0_374_6820" style="mask-type:luminance" maskUnits="userSpaceOnUse" x="0" y="0" width="24" height="24">
<path fill-rule="evenodd" clip-rule="evenodd" d="M0.333313 0.333496H23.0562V23.0567H0.333313V0.333496Z" fill="white"/>
</mask>
<g mask="url(#mask0_374_6820)">
<path fill-rule="evenodd" clip-rule="evenodd" d="M11.6953 2.0835C6.39513 2.0835 2.08313 6.39433 2.08313 11.6945C2.08313 16.9947 6.39513 21.3067 11.6953 21.3067C16.9943 21.3067 21.3063 16.9947 21.3063 11.6945C21.3063 6.39433 16.9943 2.0835 11.6953 2.0835M11.6953 23.0567C5.4303 23.0567 0.33313 17.9595 0.33313 11.6945C0.33313 5.4295 5.4303 0.333496 11.6953 0.333496C17.9603 0.333496 23.0563 5.4295 23.0563 11.6945C23.0563 17.9595 17.9603 23.0567 11.6953 23.0567" fill="#212121"/>
</g>
<mask id="mask1_374_6820" style="mask-type:luminance" maskUnits="userSpaceOnUse" x="18" y="18" width="6" height="7">
<path fill-rule="evenodd" clip-rule="evenodd" d="M18.1133 18.6582H23.9747V24.5087H18.1133V18.6582Z" fill="white"/>
</mask>
<g mask="url(#mask1_374_6820)">
<path fill-rule="evenodd" clip-rule="evenodd" d="M23.0999 24.5087C22.8771 24.5087 22.6531 24.4236 22.4816 24.2532L18.3702 20.1536C18.0284 19.8117 18.0272 19.2576 18.3691 18.9157C18.7097 18.5716 19.2639 18.5739 19.6069 18.9134L23.7182 23.0142C24.0601 23.3561 24.0612 23.9091 23.7194 24.2509C23.5491 24.4236 23.3239 24.5087 23.0999 24.5087" fill="#212121"/>
</g>
</svg>
