<svg width="20" height="20" viewBox="0 0 20 20" fill="none" xmlns="http://www.w3.org/2000/svg">
<mask id="mask0_865_1879" style="mask-type:luminance" maskUnits="userSpaceOnUse" x="1" y="2" width="17" height="17">
<path fill-rule="evenodd" clip-rule="evenodd" d="M1.66669 2.5H17.9159V18.7492H1.66669V2.5Z" fill="white"/>
</mask>
<g mask="url(#mask0_865_1879)">
<path fill-rule="evenodd" clip-rule="evenodd" d="M9.00408 12.3479L12.0516 17.2921C12.1849 17.5088 12.3932 17.5063 12.4774 17.4946C12.5616 17.4829 12.7641 17.4313 12.8374 17.1854L16.6482 4.31461C16.7149 4.08711 16.5924 3.93211 16.5374 3.87711C16.4841 3.82211 16.3316 3.70461 16.1107 3.76711L3.23075 7.53877C2.98658 7.61044 2.93325 7.81544 2.92158 7.89961C2.90991 7.98544 2.90658 8.19794 3.12241 8.33377L8.12325 11.4613L12.5416 6.99627C12.7841 6.75127 13.1799 6.74877 13.4257 6.99127C13.6716 7.23377 13.6732 7.63044 13.4307 7.87544L9.00408 12.3479ZM12.4124 18.7496C11.8324 18.7496 11.3007 18.4546 10.9874 17.9479L7.75658 12.7054L2.45991 9.39294C1.88908 9.03544 1.59075 8.39877 1.68325 7.72961C1.77491 7.06044 2.23408 6.52877 2.87908 6.33961L15.7591 2.56794C16.3516 2.39461 16.9866 2.55877 17.4232 2.99377C17.8599 3.43294 18.0224 4.07461 17.8457 4.66961L14.0349 17.5396C13.8441 18.1871 13.3107 18.6446 12.6432 18.7338C12.5649 18.7438 12.4891 18.7496 12.4124 18.7496V18.7496Z" fill="#212121"/>
</g>
</svg>
