<svg width="25" height="22" viewBox="0 0 25 22" fill="none" xmlns="http://www.w3.org/2000/svg">
<path fill-rule="evenodd" clip-rule="evenodd" d="M19.2304 6.77877H24.1667C24.1667 2.81536 21.7919 0.5 17.7682 0.5H7.23189C3.20819 0.5 0.833374 2.81536 0.833374 6.72821V15.2718C0.833374 19.1846 3.20819 21.5 7.23189 21.5H17.7682C21.7919 21.5 24.1667 19.1846 24.1667 15.2718V14.9078H19.2304C16.9395 14.9078 15.0823 13.0971 15.0823 10.8635C15.0823 8.6299 16.9395 6.81921 19.2304 6.81921V6.77877ZM19.2304 8.51781H23.2956C23.7767 8.51781 24.1667 8.89806 24.1667 9.36712V12.3195C24.1611 12.7862 23.7744 13.1633 23.2956 13.1688H19.3237C18.1639 13.184 17.1498 12.4098 16.8867 11.3084C16.755 10.6247 16.9399 9.91916 17.392 9.38092C17.844 8.84268 18.5169 8.52675 19.2304 8.51781ZM19.4067 11.6218H19.7904C20.283 11.6218 20.6823 11.2325 20.6823 10.7523C20.6823 10.2721 20.283 9.88276 19.7904 9.88276H19.4067C19.1711 9.88006 18.9443 9.96941 18.7767 10.1309C18.6091 10.2923 18.5148 10.5125 18.5149 10.7422C18.5148 11.2241 18.9125 11.6163 19.4067 11.6218ZM6.36078 6.77877H12.946C13.4385 6.77877 13.8378 6.38947 13.8378 5.90924C13.8378 5.42902 13.4385 5.03972 12.946 5.03972H6.36078C5.87225 5.03969 5.47461 5.42286 5.46893 5.89913C5.4689 6.38102 5.86655 6.77323 6.36078 6.77877Z" fill="url(#paint0_linear_573_14219)"/>
<defs>
<linearGradient id="paint0_linear_573_14219" x1="24.1667" y1="21.5" x2="-3.10185" y2="12.7153" gradientUnits="userSpaceOnUse">
<stop stop-color="#6949FF"/>
<stop offset="1" stop-color="#876DFF"/>
</linearGradient>
</defs>
</svg>
