<svg width="29" height="28" viewBox="0 0 29 28" fill="none" xmlns="http://www.w3.org/2000/svg">
<path d="M9.7395 15.7144C11.3845 15.7144 12.7034 17.046 12.7034 18.7026V22.6802C12.7032 24.325 11.3844 25.6665 9.7395 25.6665H5.79614C4.16313 25.6663 2.83345 24.3249 2.83325 22.6802V18.7026C2.83326 17.0461 4.16301 15.7146 5.79614 15.7144H9.7395ZM23.2034 15.7144C24.8367 15.7144 26.1663 17.046 26.1663 18.7026V22.6802C26.1661 24.325 24.8366 25.6665 23.2034 25.6665H19.26C17.6151 25.6665 16.2973 24.325 16.2971 22.6802V18.7026C16.2971 17.046 17.615 15.7144 19.26 15.7144H23.2034ZM9.7395 2.3335C11.3845 2.3335 12.7034 3.67561 12.7034 5.32178V9.29834C12.7034 10.955 11.3845 12.2856 9.7395 12.2856H5.79614C4.16301 12.2854 2.83325 10.9549 2.83325 9.29834V5.32178C2.83325 3.67576 4.16301 2.33374 5.79614 2.3335H9.7395ZM23.2034 2.3335C24.8367 2.3335 26.1663 3.67561 26.1663 5.32178V9.29834C26.1663 10.955 24.8367 12.2856 23.2034 12.2856H19.26C17.615 12.2856 16.2971 10.955 16.2971 9.29834V5.32178C16.2971 3.67562 17.615 2.33351 19.26 2.3335H23.2034Z" fill="url(#paint0_linear_573_12930)"/>
<defs>
<linearGradient id="paint0_linear_573_12930" x1="26.1663" y1="25.6665" x2="-1.59792" y2="17.6165" gradientUnits="userSpaceOnUse">
<stop stop-color="#F89300"/>
<stop offset="1" stop-color="#FFBB58"/>
</linearGradient>
</defs>
</svg>
