<svg width="280" height="273" viewBox="0 0 280 273" fill="none" xmlns="http://www.w3.org/2000/svg">
<g clip-path="url(#clip0_1_3772)">
<path d="M177.756 61.3969H102.308C100.588 61.399 98.9401 62.0821 97.7243 63.2965C96.5086 64.5108 95.8247 66.1572 95.8226 67.8745V235.365L94.9579 235.628L76.4493 241.29C75.5722 241.557 74.6247 241.466 73.815 241.036C73.0052 240.606 72.3994 239.872 72.1304 238.997L17.0758 59.3715C16.8079 58.4954 16.8992 57.5488 17.3297 56.7398C17.7602 55.9309 18.4946 55.3258 19.3716 55.0574L47.8933 46.3342L130.579 21.0541L159.1 12.3309C159.534 12.1974 159.99 12.1508 160.442 12.1936C160.894 12.2365 161.334 12.368 161.735 12.5806C162.136 12.7932 162.491 13.0827 162.78 13.4326C163.069 13.7824 163.286 14.1858 163.419 14.6196L177.492 60.5332L177.756 61.3969Z" fill="#F2F2F2"/>
<path d="M194.219 60.533L177.258 5.19663C176.976 4.27462 176.515 3.41719 175.901 2.67333C175.287 1.92947 174.532 1.31376 173.679 0.861389C172.827 0.409015 171.894 0.128837 170.933 0.0368764C169.972 -0.0550841 169.003 0.0429748 168.08 0.32544L127.98 12.5855L45.2991 37.8699L5.19946 50.1342C3.33664 50.7056 1.77688 51.9919 0.862535 53.7107C-0.0518073 55.4296 -0.246026 57.4406 0.322517 59.3023L58.2909 248.419C58.7528 249.922 59.6847 251.238 60.9499 252.173C62.2151 253.108 63.747 253.613 65.3209 253.614C66.0493 253.615 66.7736 253.506 67.4695 253.291L94.9578 244.887L95.8225 244.619V243.717L94.9578 243.98L67.2145 252.466C65.5702 252.966 63.7943 252.795 62.2762 251.99C60.7581 251.184 59.6219 249.81 59.1167 248.169L1.15279 59.0475C0.902503 58.2343 0.815271 57.3798 0.896087 56.5328C0.976903 55.6859 1.22417 54.8633 1.62375 54.1119C2.02333 53.3606 2.56737 52.6954 3.2247 52.1544C3.88203 51.6134 4.63974 51.2072 5.45446 50.9591L45.5541 38.6947L128.235 13.4146L168.335 1.15027C168.953 0.961898 169.595 0.865852 170.241 0.86525C171.628 0.86836 172.977 1.31487 174.091 2.13937C175.205 2.96387 176.026 4.12305 176.433 5.44711L193.315 60.533L193.584 61.3967H194.483L194.219 60.533Z" fill="#BDBDBD"/>
<path d="M53.0401 55.1985C52.2068 55.1979 51.3956 54.9306 50.7256 54.4358C50.0555 53.941 49.5619 53.2447 49.317 52.4491L43.7483 34.2807C43.5987 33.7927 43.5468 33.28 43.5955 32.7719C43.6443 32.2638 43.7928 31.7703 44.0325 31.3195C44.2722 30.8688 44.5985 30.4696 44.9927 30.1448C45.3869 29.8201 45.8413 29.576 46.3299 29.4267L122.396 6.16597C123.382 5.86521 124.448 5.96779 125.359 6.45119C126.271 6.93459 126.952 7.75933 127.255 8.74438L132.824 26.913C133.125 27.8986 133.022 28.9632 132.538 29.8733C132.054 30.7833 131.229 31.4644 130.243 31.7672L54.1769 55.0279C53.8085 55.1409 53.4254 55.1984 53.0401 55.1985Z" fill="url(#paint0_linear_1_3772)"/>
<path d="M82.2113 19.4134C86.9868 19.4134 90.8581 15.5465 90.8581 10.7765C90.8581 6.0065 86.9868 2.13965 82.2113 2.13965C77.4358 2.13965 73.5645 6.0065 73.5645 10.7765C73.5645 15.5465 77.4358 19.4134 82.2113 19.4134Z" fill="url(#paint1_linear_1_3772)"/>
<path d="M82.2113 16.2454C85.2353 16.2454 87.6867 13.7968 87.6867 10.7763C87.6867 7.75574 85.2353 5.30713 82.2113 5.30713C79.1873 5.30713 76.7358 7.75574 76.7358 10.7763C76.7358 13.7968 79.1873 16.2454 82.2113 16.2454Z" fill="white"/>
<path d="M260.545 251.408H114.413C113.439 251.407 112.505 251.02 111.816 250.331C111.127 249.643 110.74 248.71 110.738 247.737V72.8406C110.739 71.8674 111.127 70.9344 111.816 70.2462C112.505 69.5581 113.439 69.171 114.413 69.1699H260.545C261.519 69.171 262.453 69.5581 263.142 70.2463C263.831 70.9344 264.218 71.8674 264.22 72.8406V247.737C264.218 248.71 263.831 249.643 263.142 250.331C262.453 251.02 261.519 251.407 260.545 251.408Z" fill="#E6E6E6"/>
<path d="M193.316 60.5332H102.308C100.359 60.536 98.4914 61.3103 97.1136 62.6865C95.7359 64.0626 94.9606 65.9283 94.9579 67.8745V243.98L95.8226 243.717V67.8745C95.8247 66.1572 96.5086 64.5108 97.7243 63.2965C98.9401 62.0821 100.588 61.399 102.308 61.3969H193.584L193.316 60.5332ZM272.65 60.5332H102.308C100.359 60.536 98.4914 61.3103 97.1136 62.6865C95.7359 64.0626 94.9606 65.9283 94.9579 67.8745V265.659C94.9606 267.605 95.7359 269.471 97.1136 270.847C98.4914 272.223 100.359 272.997 102.308 273H272.65C274.599 272.997 276.467 272.223 277.844 270.847C279.222 269.471 279.997 267.605 280 265.659V67.8745C279.997 65.9283 279.222 64.0626 277.844 62.6865C276.467 61.3103 274.599 60.536 272.65 60.5332ZM279.135 265.659C279.133 267.376 278.449 269.023 277.234 270.237C276.018 271.451 274.37 272.134 272.65 272.136H102.308C100.588 272.134 98.9401 271.451 97.7243 270.237C96.5086 269.023 95.8247 267.376 95.8226 265.659V67.8745C95.8247 66.1572 96.5086 64.5108 97.7243 63.2965C98.9401 62.0821 100.588 61.399 102.308 61.3969H272.65C274.37 61.399 276.018 62.0821 277.234 63.2965C278.449 64.5108 279.133 66.1572 279.135 67.8745V265.659Z" fill="#BDBDBD"/>
<path d="M227.254 79.534H147.704C146.672 79.5329 145.683 79.123 144.953 78.3944C144.224 77.6658 143.814 76.6779 143.812 75.6475V56.6464C143.814 55.6159 144.224 54.628 144.953 53.8994C145.683 53.1708 146.672 52.7609 147.704 52.7598H227.254C228.286 52.7609 229.275 53.1708 230.005 53.8994C230.734 54.628 231.144 55.6159 231.145 56.6464V75.6475C231.144 76.6779 230.734 77.6658 230.005 78.3944C229.275 79.123 228.286 79.5329 227.254 79.534Z" fill="url(#paint2_linear_1_3772)"/>
<path d="M187.479 54.0555C192.254 54.0555 196.126 50.1886 196.126 45.4186C196.126 40.6486 192.254 36.7817 187.479 36.7817C182.703 36.7817 178.832 40.6486 178.832 45.4186C178.832 50.1886 182.703 54.0555 187.479 54.0555Z" fill="url(#paint3_linear_1_3772)"/>
<path d="M187.479 50.679C190.388 50.679 192.746 48.3238 192.746 45.4184C192.746 42.513 190.388 40.1577 187.479 40.1577C184.57 40.1577 182.212 42.513 182.212 45.4184C182.212 48.3238 184.57 50.679 187.479 50.679Z" fill="white"/>
</g>
<defs>
<linearGradient id="paint0_linear_1_3772" x1="132.994" y1="55.1985" x2="42.7169" y2="7.63028" gradientUnits="userSpaceOnUse">
<stop stop-color="#F89300"/>
<stop offset="1" stop-color="#FFBB58"/>
</linearGradient>
<linearGradient id="paint1_linear_1_3772" x1="90.8581" y1="19.4134" x2="70.2839" y2="13.4412" gradientUnits="userSpaceOnUse">
<stop stop-color="#F89300"/>
<stop offset="1" stop-color="#FFBB58"/>
</linearGradient>
<linearGradient id="paint2_linear_1_3772" x1="231.145" y1="79.5341" x2="171.679" y2="23.2944" gradientUnits="userSpaceOnUse">
<stop stop-color="#F89300"/>
<stop offset="1" stop-color="#FFBB58"/>
</linearGradient>
<linearGradient id="paint3_linear_1_3772" x1="196.126" y1="54.0555" x2="175.551" y2="48.0833" gradientUnits="userSpaceOnUse">
<stop stop-color="#F89300"/>
<stop offset="1" stop-color="#FFBB58"/>
</linearGradient>
<clipPath id="clip0_1_3772">
<rect width="280" height="273" fill="white"/>
</clipPath>
</defs>
</svg>
