<svg width="281" height="273" viewBox="0 0 281 273" fill="none" xmlns="http://www.w3.org/2000/svg">
<g clip-path="url(#clip0_1_13904)">
<path d="M178.256 61.3969H102.808C101.088 61.399 99.4401 62.0821 98.2243 63.2965C97.0086 64.5108 96.3247 66.1572 96.3226 67.8745V235.365L95.4579 235.628L76.9493 241.29C76.0722 241.557 75.1247 241.466 74.315 241.036C73.5052 240.606 72.8994 239.872 72.6304 238.997L17.5758 59.3715C17.3079 58.4954 17.3992 57.5488 17.8297 56.7398C18.2602 55.9309 18.9946 55.3258 19.8716 55.0574L48.3933 46.3342L131.079 21.0541L159.6 12.3309C160.034 12.1974 160.49 12.1508 160.942 12.1936C161.394 12.2365 161.834 12.368 162.235 12.5806C162.636 12.7932 162.991 13.0827 163.28 13.4326C163.569 13.7824 163.786 14.1858 163.919 14.6196L177.992 60.5332L178.256 61.3969Z" fill="#35383F"/>
<path d="M194.719 60.533L177.758 5.19663C177.476 4.27462 177.015 3.41719 176.401 2.67333C175.787 1.92947 175.032 1.31376 174.179 0.861389C173.327 0.409015 172.394 0.128837 171.433 0.0368764C170.472 -0.0550841 169.503 0.0429748 168.58 0.32544L128.48 12.5855L45.7991 37.8699L5.69946 50.1342C3.83664 50.7056 2.27688 51.9919 1.36253 53.7107C0.448193 55.4296 0.253974 57.4406 0.822517 59.3023L58.7909 248.419C59.2528 249.922 60.1847 251.238 61.4499 252.173C62.7151 253.108 64.247 253.613 65.8209 253.614C66.5493 253.615 67.2736 253.506 67.9695 253.291L95.4578 244.887L96.3225 244.619V243.717L95.4578 243.98L67.7145 252.466C66.0702 252.966 64.2943 252.795 62.7762 251.99C61.2581 251.184 60.1219 249.81 59.6167 248.169L1.65279 59.0475C1.4025 58.2343 1.31527 57.3798 1.39609 56.5328C1.4769 55.6859 1.72417 54.8633 2.12375 54.1119C2.52333 53.3606 3.06737 52.6954 3.7247 52.1544C4.38203 51.6134 5.13974 51.2072 5.95446 50.9591L46.0541 38.6947L128.735 13.4146L168.835 1.15027C169.453 0.961898 170.095 0.865852 170.741 0.86525C172.128 0.86836 173.477 1.31487 174.591 2.13937C175.705 2.96387 176.526 4.12305 176.933 5.44711L193.815 60.533L194.084 61.3967H194.983L194.719 60.533Z" fill="#35383F"/>
<path d="M53.5401 55.1985C52.7068 55.1979 51.8956 54.9306 51.2256 54.4358C50.5555 53.941 50.0619 53.2447 49.817 52.4491L44.2483 34.2807C44.0987 33.7927 44.0468 33.28 44.0955 32.7719C44.1443 32.2638 44.2928 31.7703 44.5325 31.3195C44.7722 30.8688 45.0985 30.4696 45.4927 30.1448C45.8869 29.8201 46.3413 29.576 46.8299 29.4267L122.896 6.16597C123.882 5.86521 124.948 5.96779 125.859 6.45119C126.771 6.93459 127.452 7.75933 127.755 8.74438L133.324 26.913C133.625 27.8986 133.522 28.9632 133.038 29.8733C132.554 30.7833 131.729 31.4644 130.743 31.7672L54.6769 55.0279C54.3085 55.1409 53.9254 55.1984 53.5401 55.1985Z" fill="url(#paint0_linear_1_13904)"/>
<path d="M82.7113 19.4134C87.4868 19.4134 91.3581 15.5465 91.3581 10.7765C91.3581 6.0065 87.4868 2.13965 82.7113 2.13965C77.9358 2.13965 74.0645 6.0065 74.0645 10.7765C74.0645 15.5465 77.9358 19.4134 82.7113 19.4134Z" fill="url(#paint1_linear_1_13904)"/>
<path d="M82.7113 16.2454C85.7353 16.2454 88.1867 13.7968 88.1867 10.7763C88.1867 7.75574 85.7353 5.30713 82.7113 5.30713C79.6873 5.30713 77.2358 7.75574 77.2358 10.7763C77.2358 13.7968 79.6873 16.2454 82.7113 16.2454Z" fill="#35383F"/>
<path d="M261.045 251.408H114.913C113.939 251.407 113.005 251.02 112.316 250.331C111.627 249.643 111.24 248.71 111.238 247.737V72.8406C111.239 71.8674 111.627 70.9344 112.316 70.2462C113.005 69.5581 113.939 69.171 114.913 69.1699H261.045C262.019 69.171 262.953 69.5581 263.642 70.2463C264.331 70.9344 264.718 71.8674 264.72 72.8406V247.737C264.718 248.71 264.331 249.643 263.642 250.331C262.953 251.02 262.019 251.407 261.045 251.408Z" fill="#35383F"/>
<path d="M193.816 60.5332H102.808C100.859 60.536 98.9914 61.3103 97.6136 62.6865C96.2359 64.0626 95.4606 65.9283 95.4579 67.8745V243.98L96.3226 243.717V67.8745C96.3247 66.1572 97.0086 64.5108 98.2243 63.2965C99.4401 62.0821 101.088 61.399 102.808 61.3969H194.084L193.816 60.5332ZM273.15 60.5332H102.808C100.859 60.536 98.9914 61.3103 97.6136 62.6865C96.2359 64.0626 95.4606 65.9283 95.4579 67.8745V265.659C95.4606 267.605 96.2359 269.471 97.6136 270.847C98.9914 272.223 100.859 272.997 102.808 273H273.15C275.099 272.997 276.967 272.223 278.344 270.847C279.722 269.471 280.497 267.605 280.5 265.659V67.8745C280.497 65.9283 279.722 64.0626 278.344 62.6865C276.967 61.3103 275.099 60.536 273.15 60.5332ZM279.635 265.659C279.633 267.376 278.949 269.023 277.734 270.237C276.518 271.451 274.87 272.134 273.15 272.136H102.808C101.088 272.134 99.4401 271.451 98.2243 270.237C97.0086 269.023 96.3247 267.376 96.3226 265.659V67.8745C96.3247 66.1572 97.0086 64.5108 98.2243 63.2965C99.4401 62.0821 101.088 61.399 102.808 61.3969H273.15C274.87 61.399 276.518 62.0821 277.734 63.2965C278.949 64.5108 279.633 66.1572 279.635 67.8745V265.659Z" fill="#35383F"/>
<path d="M227.754 79.534H148.204C147.172 79.5329 146.183 79.123 145.453 78.3944C144.724 77.6658 144.314 76.6779 144.312 75.6475V56.6464C144.314 55.6159 144.724 54.628 145.453 53.8994C146.183 53.1708 147.172 52.7609 148.204 52.7598H227.754C228.786 52.7609 229.775 53.1708 230.505 53.8994C231.234 54.628 231.644 55.6159 231.645 56.6464V75.6475C231.644 76.6779 231.234 77.6658 230.505 78.3944C229.775 79.123 228.786 79.5329 227.754 79.534Z" fill="url(#paint2_linear_1_13904)"/>
<path d="M187.979 54.0555C192.754 54.0555 196.626 50.1886 196.626 45.4186C196.626 40.6486 192.754 36.7817 187.979 36.7817C183.203 36.7817 179.332 40.6486 179.332 45.4186C179.332 50.1886 183.203 54.0555 187.979 54.0555Z" fill="url(#paint3_linear_1_13904)"/>
<path d="M187.979 50.679C190.888 50.679 193.246 48.3238 193.246 45.4184C193.246 42.513 190.888 40.1577 187.979 40.1577C185.07 40.1577 182.712 42.513 182.712 45.4184C182.712 48.3238 185.07 50.679 187.979 50.679Z" fill="#35383F"/>
</g>
<defs>
<linearGradient id="paint0_linear_1_13904" x1="133.494" y1="55.1985" x2="43.2169" y2="7.63028" gradientUnits="userSpaceOnUse">
<stop stop-color="#F89300"/>
<stop offset="1" stop-color="#FFBB58"/>
</linearGradient>
<linearGradient id="paint1_linear_1_13904" x1="91.3581" y1="19.4134" x2="70.7839" y2="13.4412" gradientUnits="userSpaceOnUse">
<stop stop-color="#F89300"/>
<stop offset="1" stop-color="#FFBB58"/>
</linearGradient>
<linearGradient id="paint2_linear_1_13904" x1="231.645" y1="79.5341" x2="172.179" y2="23.2944" gradientUnits="userSpaceOnUse">
<stop stop-color="#F89300"/>
<stop offset="1" stop-color="#FFBB58"/>
</linearGradient>
<linearGradient id="paint3_linear_1_13904" x1="196.626" y1="54.0555" x2="176.051" y2="48.0833" gradientUnits="userSpaceOnUse">
<stop stop-color="#F89300"/>
<stop offset="1" stop-color="#FFBB58"/>
</linearGradient>
<clipPath id="clip0_1_13904">
<rect width="280" height="273" fill="white" transform="translate(0.5)"/>
</clipPath>
</defs>
</svg>
