<svg width="25" height="24" viewBox="0 0 25 24" fill="none" xmlns="http://www.w3.org/2000/svg">
<path fill-rule="evenodd" clip-rule="evenodd" d="M7.4485 0.333008H17.5635C21.5185 0.333008 24.1668 3.10967 24.1668 7.23967V16.7725C24.1668 20.8897 21.5185 23.6663 17.5635 23.6663H7.4485C3.4935 23.6663 0.833496 20.8897 0.833496 16.7725V7.23967C0.833496 3.10967 3.4935 0.333008 7.4485 0.333008ZM11.8352 15.488L17.3768 9.94634C17.7735 9.54967 17.7735 8.90801 17.3768 8.49967C16.9802 8.10301 16.3268 8.10301 15.9302 8.49967L11.1118 13.318L9.07016 11.2763C8.6735 10.8797 8.02016 10.8797 7.6235 11.2763C7.22683 11.673 7.22683 12.3147 7.6235 12.723L10.4002 15.488C10.5985 15.6863 10.8552 15.7797 11.1118 15.7797C11.3802 15.7797 11.6368 15.6863 11.8352 15.488Z" fill="url(#paint0_linear_573_13432)"/>
<defs>
<linearGradient id="paint0_linear_573_13432" x1="24.1668" y1="23.6663" x2="-3.59774" y2="15.6163" gradientUnits="userSpaceOnUse">
<stop stop-color="#246BFD"/>
<stop offset="1" stop-color="#5089FD"/>
</linearGradient>
</defs>
</svg>
