<svg width="25" height="24" viewBox="0 0 25 24" fill="none" xmlns="http://www.w3.org/2000/svg">
<path fill-rule="evenodd" clip-rule="evenodd" d="M14.1916 3.6937H17.7733C22.0783 3.6937 24.1783 5.99203 24.1666 10.7054V16.387C24.1666 20.8904 21.3899 23.667 16.8749 23.667H8.11325C3.62159 23.667 0.833252 20.8904 0.833252 16.3754V7.61369C0.833252 2.78369 2.97992 0.333695 7.21492 0.333695H9.05825C10.1444 0.322029 11.1583 0.823695 11.8233 1.67536L12.8499 3.04036C13.1766 3.44869 13.6666 3.6937 14.1916 3.6937ZM7.09825 15.8387H17.9016C18.3799 15.8387 18.7649 15.442 18.7649 14.9637C18.7649 14.4737 18.3799 14.0887 17.9016 14.0887H7.09825C6.60825 14.0887 6.22325 14.4737 6.22325 14.9637C6.22325 15.442 6.60825 15.8387 7.09825 15.8387Z" fill="url(#paint0_linear_573_12949)"/>
<defs>
<linearGradient id="paint0_linear_573_12949" x1="24.1666" y1="23.667" x2="-3.59802" y2="15.617" gradientUnits="userSpaceOnUse">
<stop stop-color="#FF5A5F"/>
<stop offset="1" stop-color="#FF8A9B"/>
</linearGradient>
</defs>
</svg>
