<svg width="29" height="28" viewBox="0 0 29 28" fill="none" xmlns="http://www.w3.org/2000/svg">
<path fill-rule="evenodd" clip-rule="evenodd" d="M9.4485 2.33301H19.5635C23.5185 2.33301 26.1668 5.10967 26.1668 9.23967V18.7725C26.1668 22.8897 23.5185 25.6663 19.5635 25.6663H9.4485C5.4935 25.6663 2.8335 22.8897 2.8335 18.7725V9.23967C2.8335 5.10967 5.4935 2.33301 9.4485 2.33301ZM13.8352 17.488L19.3768 11.9463C19.7735 11.5497 19.7735 10.908 19.3768 10.4997C18.9802 10.103 18.3268 10.103 17.9302 10.4997L13.1118 15.318L11.0702 13.2763C10.6735 12.8797 10.0202 12.8797 9.6235 13.2763C9.22683 13.673 9.22683 14.3147 9.6235 14.723L12.4002 17.488C12.5985 17.6863 12.8552 17.7797 13.1118 17.7797C13.3802 17.7797 13.6368 17.6863 13.8352 17.488Z" fill="url(#paint0_linear_573_12137)"/>
<defs>
<linearGradient id="paint0_linear_573_12137" x1="26.1668" y1="25.6663" x2="-1.59774" y2="17.6163" gradientUnits="userSpaceOnUse">
<stop stop-color="#6949FF"/>
<stop offset="1" stop-color="#876DFF"/>
</linearGradient>
</defs>
</svg>
